<svg version="1.1" xmlns="http://www.w3.org/2000/svg" width="89" height="89" viewBox="0 0 1024 1024">
  <g id="icomoon-ignore"></g>
  <path d="M564 674q-8 0-12-5t-6-13l2-30q-2-8 4-13t10-5q10 0 14 5t6 13l-2 30q2 8-4 13t-12 5v0zM562 450q-4 0-10-5t-4-11l-2-34q2-6 6-11t12-5q6 0 12 5t4 11l2 34q-2 6-6 11t-14 5v0zM692 546h-34q-4 0-10-5t-4-11q-2-8 4-13t10-5h34q4 0 10 5t4 13q2 6-4 11t-10 5v0zM466 546h-30q-10 0-14-5t-6-11q2-8 6-13t14-5h30q10 0 14 5t6 13q-2 6-6 11t-14 5v0zM656 636q-6 0-8-1t-8-3l-20-22q-6-6-5-13t3-11q8-6 14-6t12 6l22 22q6 4 5 11t-3 13q-6 2-8 3t-6 1h2zM496 478q-4 0-6-1t-8-3l-20-24q-6-4-5-11t3-13q6-4 13-4t13 4l20 24q8 4 7 11t-5 13l-6 3t-8 1h2zM632 478q-4 0-7-1t-7-3q-2-6-3-13t5-11l20-24q8-4 14-4t14 4q2 6 3 13t-5 11l-22 24-6 3t-8 1h2zM474 636q-6 0-8-1l-6-3q-2-6-3-13t5-11l20-22q8-6 14-6t12 6q4 4 5 11t-7 13l-20 22-6 3t-8 1h2zM564 642q-24 0-44-9t-38-23q-12-16-22-37t-8-43q-2-24 8-45t22-35q18-16 38-25t44-9q22 0 44 9t34 25q18 14 26 35t10 45q-2 22-10 43t-26 37q-12 14-34 23t-44 9v0zM562 450q-14 0-29 6t-25 18q-12 10-17 24t-7 32q2 16 7 30t17 26q10 10 25 16t29 6q18 0 32-6t26-16q10-12 17-26t5-30q2-18-5-32t-17-24q-12-12-26-18t-32-6v0zM832 874h-600q-44 0-87-18t-73-50q-34-32-51-75t-19-91q2-48 19-91t51-75q28-32 71-50t87-18q20-58 52-105t80-81q42-32 98-51t114-19q76 0 140 28t116 78q46 48 75 113t27 139q2 4 1 8t1 8q18 12 35 30t25 38q14 20 19 43t7 47q-2 40-16 75t-42 61q-24 26-59 41t-71 15v0zM236 440q-40 0-77 16t-63 42q-28 28-43 64t-17 78q2 40 17 77t43 63q26 28 62 44t74 16h600q30 0 59-13t47-33q24-22 35-51t13-61q-2-20-7-40t-17-38q-8-18-23-32t-31-24q-6-2-8-7t-2-9q2-6 1-12t1-12q-2-66-26-125t-70-103q-42-44-102-70t-126-26q-58 0-108 18t-92 50q-40 32-71 77t-43 99q-4 6-7 9t-13 3q2 0-1 0h-3q-2 0-1 0t-1 0v0z" fill="#4a90e2"/>
</svg>
