<svg version="1.1" xmlns="http://www.w3.org/2000/svg" width="53" height="42" viewBox="0 0 717 1024">
<g id="icomoon-ignore">
</g>
<path d="M665.6 460.8q22.528 0 36.864 15.36t14.336 35.84-15.36 35.84-35.84 15.36h-614.4q-20.48 0-35.84-15.36t-15.36-35.84 14.336-35.84 36.864-15.36h614.4zM51.2 358.4q-20.48 0-35.84-15.36t-15.36-35.84 14.336-35.84 36.864-15.36h614.4q22.528 0 36.864 15.36t14.336 35.84-15.36 35.84-35.84 15.36h-614.4zM665.6 665.6q22.528 0 36.864 15.36t14.336 35.84-15.36 35.84-35.84 15.36h-614.4q-20.48 0-35.84-15.36t-15.36-35.84 14.336-35.84 36.864-15.36h614.4z" fill="#252525"></path>
</svg>
