<svg version="1.1" xmlns="http://www.w3.org/2000/svg" width="124" height="89" viewBox="0 0 1024 1024">
<g id="icomoon-ignore">
</g>
<path d="M990 734h-956q-6 0-11-5t-5-13v-580q0-6 5-11t11-5h956q6 0 11 5t5 11v580q0 8-5 13t-11 5v0zM52 700h920v-546h-920v546zM686 904h-340q-8 0-13-5t-5-11q0-8 5-13t13-5q30 0 48-18t30-42q10-24 14-47t4-33q0-6 5-11t13-5q6 0 11 5t5 11q0 14-3 32t-9 38q-6 18-16 37t-24 33h184q-14-14-24-33t-16-37q-6-20-9-38t-3-32q0-6 5-11t11-5q8 0 13 5t5 11q0 10 4 33t14 47 29 42 49 18q8 0 13 5t5 13q0 6-5 11t-13 5v0zM196 454q-4 0-8-1t-6-5q-4-6-3-13t7-11l132-94q2-2 6-3t6-1l226 46 270-162q6-4 13-2t9 8q4 6 3 13t-9 9l-274 168q-4 0-7 1t-5 1l-224-46-126 90q-2 2-5 2h-5zM308 666h-104q-6 0-11-5t-5-13v-102q0-6 5-11t11-5h104q6 0 11 5t5 11v102q0 8-5 13t-11 5v0zM222 632h68v-68h-68v68zM478 666h-102q-8 0-13-5t-5-13v-170q0-8 5-13t13-5h102q6 0 11 5t5 13v170q0 8-5 13t-11 5v0zM392 632h68v-138h-68v138zM648 666h-102q-6 0-11-5t-5-13v-136q0-8 5-13t11-5h102q8 0 13 5t5 13v136q0 8-5 13t-13 5v0zM564 632h68v-102h-68v102zM820 666h-104q-6 0-11-5t-5-13v-272q0-8 5-13t11-5h104q6 0 11 5t5 13v272q0 8-5 13t-11 5v0zM734 632h68v-240h-68v240z" fill="#252525"></path>
</svg>
