<svg version="1.2" xmlns="http://www.w3.org/2000/svg" viewBox="0 0 50 50" width="50" height="50">
	<title>travis-ci-svg</title>
	<style>
		.s0 { fill: #f5f4f0 } 
	</style>
	<g id="Layer">
		<path id="Layer" class="s0" d="m31.1 25.8q-0.1-0.1-0.2-0.1-0.1-0.1-0.1-0.2 0-0.1 0-0.2 0-0.2 0.1-0.3 0.1-0.1 0.3-0.1 0.2 0 0.4 0.1 0.1 0.1 0.1 0.3 0 0.1 0 0.2-0.1 0.1-0.1 0.2-0.1 0-0.2 0.1-0.1 0-0.2 0-0.1 0-0.1 0zm-14.8 9.5q-0.6-1.2-1-2.4 0 0 0.1 0 0 0 0 0 0 0 0 0 0 0 0.1 0l6.9-1.6q0.1-0.1 0.2-0.1 0.1-0.1 0.2-0.2 0.1 0 0.2-0.1 0-0.1 0.1-0.2l1.3-3.6c0.3-0.2 1.1-0.3 1.3-0.2l1.3 3.7q0 0.1 0.1 0.2 0.1 0.1 0.2 0.2 0.1 0.1 0.2 0.1 0.1 0.1 0.2 0.1l7.1 1q0 0 0 0 0.1 0 0.1 0 0 0 0 0 0 0 0 0 0 0.2-0.1 0.5-0.1 0.3-0.1 0.5-0.1 0.3-0.2 0.5-0.1 0.3-0.2 0.5l-2.6-0.3-2.5-1.7q-0.1 0-0.2-0.1-0.1 0-0.2 0-0.1-0.1-0.2 0 0 0-0.1 0l-3.5 0.7-3.7-0.3q-0.1 0-0.2 0-0.1 0-0.2 0.1-0.1 0-0.1 0-0.1 0.1-0.2 0.2l-2.2 1.9zm3-10.1q0.1 0.1 0.2 0.1 0 0.1 0.1 0.2 0 0.1 0 0.2 0 0.1 0 0.1-0.1 0.1-0.1 0.2-0.1 0.1-0.2 0.1-0.1 0-0.1 0-0.1 0-0.2 0-0.1 0-0.2-0.1-0.1-0.1-0.1-0.1 0-0.1 0-0.2 0-0.1 0-0.2 0-0.1 0.1-0.1 0.1-0.1 0.1-0.2 0.1 0 0.2 0 0.1 0 0.2 0zm6.9 14.2l1.9 1.3q-0.4 0.2-0.7 0.3-0.4 0.1-0.8 0.2-0.4 0-0.8 0.1-0.4 0-0.8 0-0.2 0-0.5 0-0.3 0-0.6-0.1-0.3 0-0.6-0.1-0.3 0-0.5-0.1l2.3-0.3q0.1-0.1 0.2-0.1 0.1 0 0.2-0.1 0.1-0.1 0.1-0.2 0.1 0 0.2-0.1z"/>
		<path id="Layer" fill-rule="evenodd" class="s0" d="m35 36.1q0 0 0.1 0 0.1 0 0.1 0 0.1 0 0.1-0.1l1.1-0.4-1.3 2.1-6.1 1.4-2.7-1.8q-0.1-0.1-0.2-0.1-0.1 0-0.2-0.1-0.1 0-0.2 0-0.1 0-0.2 0.1 0 0-0.1 0-0.1 0.1-0.2 0.1-0.1 0.1-0.1 0.2-0.1 0.1-0.1 0.1l-0.7 1.3-7.2 1-2.2-2.4q0.1 0 0.1 0 0.1 0 0.2 0 0 0 0.1 0 0.1 0 0.1 0l3.7-1.1q0.1 0 0.1 0 0.1 0 0.1-0.1 0.1 0 0.1 0 0.1 0 0.1-0.1l2-1.8 3.5 0.2q0 0.1 0.1 0.1 0 0 0-0.1 0.1 0 0.1 0 0 0 0.1 0l3.2-0.6 2.4 1.6q0 0 0.1 0.1 0 0 0.1 0 0 0 0.1 0 0 0 0.1 0.1l3.6 0.3q0 0 0.1 0zm3.4-17.2q0.3 0.1 0.5 0.2 0.3 0.1 0.6 0.2 0.2 0.1 0.5 0.2 0.1 0.7 0 1.9-0.1 1-0.3 1.7c-9.5-2.4-19.8-2.4-29.3 0q-0.2-0.7-0.3-1.7c-0.1-0.9-0.1-1.5 0-1.9q1.2-0.5 2.3-0.8 0.1-0.1 0.1-0.1 0 0 0.1 0 0 0 0 0 0.1 0 0.1 0 0.9-0.3 1.7-0.5 0.9-0.3 1.7-0.5 0.9-0.1 1.8-0.3 0.8-0.1 1.7-0.3 0.4 0 0.6-0.3 0.2-0.3 0.2-0.7-0.1-0.4-0.4-0.6-0.3-0.2-0.6-0.2-0.8 0.1-1.5 0.2-0.7 0.2-1.5 0.3-0.7 0.1-1.4 0.3-0.7 0.2-1.5 0.4c1.5-4.4 6.2-7.6 11.6-7.6 5.3 0 10 3.2 11.5 7.6q-0.8-0.2-1.6-0.4-0.8-0.2-1.6-0.4-0.8-0.1-1.6-0.2-0.8-0.2-1.7-0.3-0.1 0-0.3 0.1-0.2 0-0.3 0.1-0.2 0.1-0.3 0.3-0.1 0.2-0.1 0.3 0 0.2 0.1 0.4 0 0.2 0.1 0.3 0.1 0.2 0.3 0.3 0.2 0 0.3 0.1 1 0.1 1.9 0.2 0.9 0.2 1.9 0.4 0.9 0.2 1.8 0.4 0.9 0.3 1.8 0.5 0.1 0.1 0.1 0.1 0.1 0 0.2 0.1 0 0 0.1 0 0.1 0 0.2 0 0.2 0.1 0.5 0.2zm-10.5-1.5q-0.1-0.1-0.2-0.2-0.1-0.2-0.2-0.2-0.2-0.1-0.3-0.1v-1.4h1.7q0.2 0 0.4-0.1 0.1-0.1 0.3-0.2 0.1-0.1 0.2-0.3 0-0.2 0-0.4v-3c0-0.5-0.4-0.9-0.9-0.9h-7.6c-0.5 0-0.9 0.4-0.9 0.9v3q0 0.2 0.1 0.4 0.1 0.2 0.2 0.3 0.1 0.1 0.3 0.2 0.2 0.1 0.3 0.1h1.8v1.4q-0.2 0-0.3 0.1-0.2 0.1-0.3 0.2-0.1 0.1-0.1 0.2-0.1 0.2-0.1 0.4v2.2q0 0.2 0.1 0.4 0.1 0.2 0.2 0.3 0.1 0.1 0.3 0.2 0.2 0.1 0.3 0.1h3.8q0.2 0 0.4-0.1 0.1-0.1 0.3-0.2 0.1-0.1 0.2-0.3 0-0.2 0-0.4v-2.2q0-0.2 0-0.4z"/>
		<path id="Layer" class="s0" d="m27.6 13.3q-0.1-0.2-0.2-0.3-0.1-0.1-0.3-0.2-0.2-0.1-0.3-0.1h-0.5c-0.5 0-0.9 0.4-0.9 1v4.1q0 0.1 0 0.3 0.1 0.1 0.2 0.2 0.1 0.2 0.2 0.2 0.1 0.1 0.3 0.2v0.4h-1.9v-0.4c0.4-0.1 0.7-0.5 0.7-0.9v-4.1c0-0.6-0.4-1-0.9-1h-0.5q-0.2 0-0.4 0.1-0.1 0.1-0.3 0.2-0.1 0.1-0.2 0.3 0 0.1 0 0.3h-0.3v-1.2h5.7v1.2h-0.3q0-0.2-0.1-0.3z"/>
		<path id="Layer" fill-rule="evenodd" class="s0" d="m24.9 49.8c-13.8 0-24.9-11.1-24.9-24.9 0-13.8 11.1-24.9 24.9-24.9 13.8 0 24.9 11.1 24.9 24.9 0 13.8-11.1 24.9-24.9 24.9zm16.7-31.3q0-0.1-0.1-0.2 0-0.1-0.1-0.2-0.1 0-0.1-0.1-0.1 0-0.2-0.1-1.2-0.5-2.4-0.9c-1.3-5.8-7-10.1-13.6-10.1-6.7 0-12.4 4.3-13.6 10.1q-0.3 0.1-0.6 0.2-0.3 0.1-0.7 0.3-0.3 0.1-0.6 0.2-0.3 0.1-0.6 0.2-0.1 0.1-0.1 0.1-0.1 0.1-0.2 0.1-0.1 0.1-0.1 0.2-0.1 0.1-0.1 0.2-0.4 1.2-0.2 3.1 0.1 1.8 0.8 3 0.1 0.2 0.2 0.3 0.1 0.1 0.3 0.1 0.1 0.1 0.3 0.1 0.1 0 0.3-0.1 0.3 0 0.7-0.1l0.9 5.2q0 0.1 0 0.2 0 0.1 0.1 0.2 0 0.1 0.1 0.1 0 0.1 0.1 0.1l1.1 0.9q0 0 0 0 0 0.1 0 0.1 0 0 0 0.1 0 0 0 0.1 0.1 0.4 0.2 0.8 0.1 0.4 0.2 0.9 0.1 0.4 0.3 0.8 0.1 0.4 0.3 0.8l-2.3-1q-0.3-0.1-0.6 0-0.3 0.1-0.5 0.3-0.2 0.3-0.1 0.6 0 0.3 0.2 0.6l5.1 5.8q0.1 0.1 0.2 0.2 0.1 0 0.2 0.1 0.1 0 0.2 0 0.1 0 0.3 0l2.5-0.3c1.7 1 3.6 1.7 5.6 1.7 2.7 0 5.2-1.1 7.3-2.9l3.6-0.9q0.1 0 0.2 0 0.1-0.1 0.1-0.1 0.1-0.1 0.2-0.1 0-0.1 0.1-0.2l2.9-4.7q0.2-0.3 0.1-0.6 0-0.3-0.2-0.5-0.2-0.2-0.4-0.3-0.3-0.1-0.6 0l-1.8 0.7q0.1-0.3 0.1-0.6 0.1-0.3 0.2-0.6 0-0.3 0.1-0.6 0-0.3 0.1-0.6 0 0 0 0 0-0.1 0-0.1 0 0 0-0.1 0 0 0 0l1-0.7q0-0.1 0.1-0.1 0.1-0.1 0.1-0.2 0 0 0.1-0.1 0-0.1 0-0.2l1.4-4.7h0.2q0.2 0.1 0.3 0.1 0.2 0 0.3-0.1 0.2-0.1 0.3-0.2 0.1-0.1 0.2-0.2 0.7-1.2 0.9-3 0.2-1.9-0.3-3.1z"/>
		<path id="Layer" fill-rule="evenodd" class="s0" d="m18.9 23.4q3.2-0.3 6.4-0.3 3.2 0 6.3 0.4 3.2 0.3 6.3 1l-1.3 4.5-1.9 1.3-6.2-0.8-1.2-3.5c-0.1-0.1-0.7-1-2-1-1.2 0-2.1 0.6-2.2 0.7q-0.1 0.1-0.1 0.1-0.1 0.1-0.1 0.1-0.1 0.1-0.1 0.1 0 0.1-0.1 0.2l-1.2 3.4-6 1.4-2-1.5-0.8-5.1q3.1-0.6 6.2-1zm1.7 3.5c-0.1-1.4-0.7-2.6-1.6-2.6-0.9 0-1.8 1.2-1.7 2.6q0 0.1 0 0.2 0 0.1 0 0.2 0 0.1 0 0.2 0.1 0.2 0.1 0.3c-0.8 0.2-1 0.6-1 0.7 0.5-0.3 1-0.3 1.9-0.3q0.2 0 0.3 0h0.3c0.9 0 1.7 0.1 1.7-1.3zm9.3-0.3c0 1.4 0.8 1.4 1.7 1.4 1.2 0 1.9-0.4 2.5-0.1 0 0-0.2-0.6-1-0.5q0.1-0.3 0.1-0.9c-0.1-1.4-1-2.6-1.9-2.5-0.9 0-1.5 1.2-1.4 2.6z"/>
	</g>
</svg>